<svg height="480pt" viewBox="0 0 480 480" width="480pt" xmlns="http://www.w3.org/2000/svg"><path d="m352 160c-17.648438 0-32-14.351562-32-32s14.351562-32 32-32 32 14.351562 32 32-14.351562 32-32 32zm0 0"/><path d="m352 208v-16c35.289062 0 64-28.710938 64-64s-28.710938-64-64-64-64 28.710938-64 64h-16c0-44.113281 35.886719-80 80-80s80 35.886719 80 80-35.886719 80-80 80zm0 0"/><path d="m352 256v-16c61.761719 0 112-50.238281 112-112s-50.238281-112-112-112-112 50.238281-112 112h-16c0-70.574219 57.425781-128 128-128s128 57.425781 128 128-57.425781 128-128 128zm0 0"/><path d="m320.960938 269.640625 26.078124-93.898437c-5.464843-.558594-10.632812-2.085938-15.398437-4.335938l-23.679687 85.242188zm0 0"/><path d="m223.351562 172.039062 85.242188-23.679687c-2.242188-4.765625-3.777344-9.933594-4.335938-15.398437l-93.898437 26.078124zm0 0"/><path d="m271.3125 220 52.917969-52.921875c-4.367188-3.117187-8.191407-6.941406-11.308594-11.308594l-52.921875 52.917969zm0 0"/><path d="m69.0625 361.230469-68.398438 111.9375c-.441406.703125-.664062 1.519531-.664062 2.34375 0 2.480469 2.007812 4.488281 4.488281 4.488281h12.441407c1.566406 0 3.039062-.832031 3.847656-2.175781l61.398437-102.328125c-4.992187-4.136719-9.382812-8.953125-13.113281-14.265625zm0 0"/><path d="m100.726562 271.199219c-17.46875 9.777343-28.726562 28.386719-28.726562 48.800781 0 30.871094 25.121094 56 56 56 14.320312 0 27.726562-5.457031 38.023438-15.070312-32-20.175782-55.757813-52.097657-65.296876-89.730469zm0 0"/><path d="m177.542969 372.046875c-4.582031 4.394531-9.664063 8.097656-15.136719 11.089844l56.816406 94.6875c.808594 1.34375 2.28125 2.175781 3.847656 2.175781h12.441407c2.480469 0 4.488281-2.007812 4.488281-4.488281 0-.832031-.222656-1.640625-.65625-2.34375zm0 0"/><path d="m112 475.511719c0 2.480469 2.007812 4.488281 4.488281 4.488281h7.023438c2.480469 0 4.488281-2.007812 4.488281-4.488281v-83.511719c-5.503906 0-10.839844-.679688-16-1.847656zm0 0"/><path d="m160 131.3125-8.921875 8.917969c-1.261719 1.265625-2.375 2.640625-3.582031 3.953125l188.320312 188.328125c1.304688-1.207031 2.679688-2.320313 3.953125-3.582031l8.917969-8.929688zm0 0"/><path d="m112 234.574219c0 73.578125 59.847656 133.425781 133.425781 133.425781 28.414063 0 55.390625-8.953125 77.964844-25.296875l-186.085937-186.085937c-16.351563 22.566406-25.304688 49.550781-25.304688 77.957031zm171.625 94.019531 6.03125 14.8125c-5.296875 2.160156-10.792969 3.929688-16.34375 5.273438l-3.769531-15.542969c4.785156-1.160157 9.519531-2.6875 14.082031-4.542969zm-43.519531 7.261719c4.925781.257812 9.925781.160156 14.824219-.296875l1.46875 15.9375c-3.628907.335937-7.292969.503906-10.972657.503906-2.074219 0-4.128906-.046875-6.167969-.160156zm-77.671875-18.289063c-22.210938-22.191406-34.433594-51.671875-34.433594-82.992187 0-3.902344.191406-7.847657.574219-11.710938l15.921875 1.570313c-.328125 3.34375-.496094 6.757812-.496094 10.140625 0 27.050781 10.558594 52.496093 29.742188 71.683593zm-10.320313-122.878906c-2.097656 4.898438-3.808593 10-5.097656 15.167969l-15.519531-3.863281c1.496094-6 3.488281-11.921876 5.910156-17.59375zm0 0"/></svg>