<svg height="464pt" viewBox="0 0 464 464" width="464pt" xmlns="http://www.w3.org/2000/svg"><path d="m128 8c0-4.414062-3.59375-8-8-8s-8 3.585938-8 8v264h16zm0 0"/><path d="m88 360c0-4.414062-3.59375-8-8-8h-40c-13.230469 0-24-10.769531-24-24s10.769531-24 24-24h16c4.40625 0 8-3.585938 8-8s-3.59375-8-8-8h-41.960938c-8.917968 16.808594-14.039062 35.863281-14.039062 56 0 8.214844.839844 16.238281 2.414062 24h77.585938c4.40625 0 8-3.585938 8-8zm0 0"/><path d="m296 192v17.480469c2.511719-.90625 5.175781-1.480469 8-1.480469 4.40625 0 8-3.585938 8-8s-3.59375-8-8-8zm0 0"/><path d="m120 408c0-13.230469 10.769531-24 24-24h48c4.40625 0 8-3.585938 8-8s-3.59375-8-8-8h-24c-13.230469 0-24-10.769531-24-24s10.769531-24 24-24h69.496094c-9.519532-46.503906-46.113282-83.785156-93.496094-93.398438v61.398438h-48v-61.398438c-29.382812 5.957032-54.625 22.542969-71.839844 45.398438h31.839844c13.230469 0 24 10.769531 24 24s-10.769531 24-24 24h-16c-4.40625 0-8 3.585938-8 8s3.59375 8 8 8h40c13.230469 0 24 10.769531 24 24s-10.769531 24-24 24h-73c16.527344 46.527344 60.871094 80 113 80 31.382812 0 59.902344-12.199219 81.3125-32h-57.3125c-13.230469 0-24-10.769531-24-24zm0 0"/><path d="m312 177.480469v-153.480469c0-4.414062-3.59375-8-8-8h-160v160h160c2.816406 0 5.480469.574219 8 1.480469zm-136-129.480469h-16v-16h16zm120 0h-104v-16h104zm0 0"/><path d="m328 80v120c0 13.230469-10.769531 24-24 24-4.40625 0-8 3.585938-8 8s3.59375 8 8 8h160v-160zm120 96h-16v-16h16zm0-32h-16v-16h16zm0-32h-16v-16h16zm0 0"/><path d="m168 336c-4.40625 0-8 3.585938-8 8s3.59375 8 8 8h24c13.230469 0 24 10.769531 24 24s-10.769531 24-24 24h-48c-4.40625 0-8 3.585938-8 8s3.59375 8 8 8h71.777344c15.132812-20.089844 24.222656-44.96875 24.222656-72 0-2.695312-.191406-5.34375-.367188-8zm0 0"/></svg>