<svg height="477pt" viewBox="-6 0 477 477.424" width="477pt" xmlns="http://www.w3.org/2000/svg"><path d="m118.316406 325.191406-24.679687-55.535156-54.113281 54.113281 34.585937 34.582031zm0 0"/><path d="m76.269531 429.023438c-2.617187 3.488281-4.058593 7.816406-4.058593 12.175781v2.289062c0 11.175781 9.105468 20.28125 20.289062 20.28125 5.414062 0 10.511719-2.113281 14.34375-5.945312l22.054688-22.054688-32.964844-32.96875zm0 0"/><path d="m6.15625 357.136719c-3.832031 3.832031-5.945312 8.925781-5.945312 14.34375 0 11.183593 9.105468 20.289062 20.289062 20.289062h2.289062c4.359376 0 8.679688-1.441406 12.175782-4.058593l26.214844-19.664063-32.96875-32.96875zm0 0"/><path d="m300.898438 239.769531-76.6875-76.691406-44.6875 44.691406 76.6875 76.6875zm-84.6875-16c0-13.234375 10.769531-24 24-24 13.234374 0 24 10.765625 24 24 0 13.230469-10.765626 24-24 24-13.230469 0-24-10.769531-24-24zm0 0"/><path d="m105.628906 389.871094 34.582032 34.585937 54.113281-54.113281-55.535157-24.679688zm0 0"/><path d="m248.210938 223.769531c0 4.417969-3.582032 8-8 8-4.417969 0-8-3.582031-8-8s3.582031-8 8-8c4.417968 0 8 3.582031 8 8zm0 0"/><path d="m172.210938 144.457031 27.03125-27.03125c.554687-.554687 1.152343-1.050781 1.738281-1.578125l-40.769531-40.769531-28.6875 28.691406zm0 0"/><path d="m118.277344 234.519531c1.789062-.511719 3.542968-1.121093 5.382812-1.480469-2.257812-5.503906-3.449218-11.382812-3.449218-17.269531 0-12.457031 4.847656-24.167969 13.65625-32.96875l27.03125-27.03125-16.6875-16.691406-39.03125 39.035156c-5.785157 5.78125-8.96875 13.480469-8.96875 21.65625s3.183593 15.871094 8.96875 21.65625zm0 0"/><path d="m232.210938 103.769531c8.746093 0 17.097656 2.4375 24.351562 6.910157-.152344-2.328126-.351562-4.648438-.351562-7.015626 0-3.96875.296874-7.910156.753906-11.832031l-11.097656-11.097656c-11.566407-11.566406-31.742188-11.566406-43.3125 0l-7.03125 7.035156 19.34375 19.34375c5.449218-2.175781 11.304687-3.34375 17.34375-3.34375zm0 0"/><path d="m120.210938 92.457031 28.6875-28.6875-10.054688-10.058593c-3.832031-3.832032-8.929688-5.941407-14.34375-5.941407-11.183594 0-20.289062 9.101563-20.289062 20.285157 0 5.417968 2.113281 10.511718 5.945312 14.34375zm0 0"/><path d="m449.730469 68.832031-54.351563-54.351562c-9.34375-9.335938-21.75-14.480469-34.957031-14.480469-13.648437 0-26.042969 5.121094-35.371094 14.425781l-26.925781 26.839844c-16.472656 16.40625-25.914062 39.160156-25.914062 62.398437 0 48.582032 39.519531 88.105469 88.105468 88.105469 23.246094 0 45.992188-9.441406 62.398438-25.90625l27.074218-27.167969c9.304688-9.335937 14.421876-21.726562 14.421876-34.902343 0-13.207031-5.144532-25.617188-14.480469-34.960938zm-27.277344 74.574219-11.058594 11.152344c-13.4375 13.480468-32.046875 21.210937-51.078125 21.210937-39.761718 0-72.105468-32.34375-72.105468-72.105469 0-19.03125 7.730468-37.640624 21.210937-51.0625l10.941406-10.859374c6.289063-6.277344 14.664063-9.742188 23.585938-9.742188 9.359375 0 17.695312 3.382812 24.101562 9.785156l54.371094 54.367188c6.222656 6.222656 9.789063 14.839844 9.789063 23.640625 0 8.917969-3.464844 17.3125-9.757813 23.613281zm0 0"/><path d="m400.210938 315.078125-28.6875 28.691406 10.054687 10.054688c3.832031 3.832031 8.929687 5.945312 14.347656 5.945312 11.183594 0 20.285157-9.105469 20.285157-20.289062 0-5.417969-2.109376-10.511719-5.941407-14.34375zm0 0"/><path d="m308.210938 303.078125-27.03125 27.035156c-12.96875 12.976563-33.078126 17.246094-50.238282 10.207031-.363281 1.832032-.96875 3.589844-1.480468 5.382813l13.09375 13.097656c11.570312 11.566407 31.746093 11.566407 43.3125 0l39.03125-39.03125zm0 0"/><path d="m356.738281 53.105469c-3.34375-3.335938-7.765625-5.105469-12.796875-5.105469-4.648437 0-9.015625 1.808594-12.304687 5.078125l-10.953125 10.867187c-10.464844 10.429688-16.472656 24.917969-16.472656 39.71875 0 30.9375 25.167968 56.105469 56.105468 56.105469 14.808594 0 29.289063-6.007812 39.726563-16.496093l11.066406-11.152344c3.292969-3.304688 5.101563-7.679688 5.101563-12.328125 0-4.585938-1.855469-9.082031-5.101563-12.320313zm0 0"/><path d="m346.554688 264.734375-27.03125 27.035156 40.6875 40.6875 28.6875-28.6875-40.765626-40.769531c-.527343.585938-1.023437 1.183594-1.578124 1.734375zm0 0"/><path d="m229.402344 321.054688c12.25 9.609374 29.96875 8.226562 40.464844-2.253907l65.375-65.375c5.785156-5.785156 8.96875-13.480469 8.96875-21.65625s-3.183594-15.875-8.96875-21.65625l-7.710938-7.714843c-31.046875-10.335938-55.605469-34.894532-65.941406-65.941407l-7.714844-7.714843c-11.566406-11.566407-31.742188-11.566407-43.3125 0l-65.375 65.378906c-5.792969 5.773437-8.976562 13.472656-8.976562 21.648437 0 6.644531 2.394531 13.300781 6.703124 18.789063l31.25 31.257812-11.3125 11.3125-29.199218-29.207031c-10.105469.613281-19.640625 4.132813-27.65625 10.167969l28.917968 65.070312 5.898438 5.894532 65.070312 28.921874c6.042969-8.015624 9.5625-17.542968 10.175782-27.65625l-29.207032-29.199218 11.3125-11.3125zm-72.503906-113.285157 67.3125-67.3125 99.3125 99.3125-67.3125 67.308594zm0 0"/><path d="m376.210938 268.457031 7.03125-7.03125c5.785156-5.785156 8.96875-13.480469 8.96875-21.65625s-3.183594-15.875-8.96875-21.65625l-11.09375-11.097656c-3.929688.457031-7.863282.753906-11.832032.753906-2.367187 0-4.6875-.203125-7.015625-.355469 4.472657 7.257813 6.910157 15.609376 6.910157 24.355469 0 6.039063-1.167969 11.894531-3.34375 17.34375zm0 0"/><path d="m337.179688 410.113281 9.375-9.378906c9.359374-9.351563 9.359374-24.582031 0-33.933594l-23.03125-23.03125-11.3125 11.308594 23.03125 23.035156c3.121093 3.117188 3.121093 8.191407 0 11.3125l-9.375 9.375c-9.359376 9.351563-9.359376 24.582031 0 33.933594l44.6875 44.691406 11.3125-11.3125-44.6875-44.6875c-3.121094-3.121093-3.121094-8.195312 0-11.3125zm0 0"/></svg>